<svg xmlns="http://www.w3.org/2000/svg" width="74" height="100" fill="none"><path fill="#911BB4" d="M63.626 70.745c7.342-5.339 5.34-11.902 3.67-17.352-.778-2.447-1.445-4.672-1.445-6.786v-3.225a6.6 6.6 0 0 0 1.446-4.116 6.6 6.6 0 0 0-1.446-4.116V22.915c0-3.671-.668-10.457-5.006-14.016-2.447-2.002-5.673-2.67-9.455-2.114C44.605.445 35.04-1.557 25.695 1.224 15.907 4.227 8.676 11.902 6.897 21.468c-.557 2.892-.89 6.23-.89 10.234v5.895c-.112 2.892-1.446 4.895-2.781 7.12-.445.667-.89 1.334-1.224 2.002-3.114 5.339-1.668 11.123 3.671 15.128 1.891 1.446 1.557 1.89.334 4.115h-.223c-2.113 3.56-2.78 6.897-2.113 10.011C1.224 79.088 0 83.203 0 88.21v10.123C0 99.222.779 100 1.669 100H72.19c.89 0 1.669-.779 1.669-1.668V88.209c0-8.342-3.337-14.015-10.234-17.464M59.844 69.3l-11.457-4.004v-5.34c5.006-3.003 8.676-8.008 10.011-13.792h2.114c.778 0 1.446-.112 2.113-.334v.89c0 2.558.779 5.228 1.557 7.786 1.669 5.784 3.115 10.567-4.338 14.794M20.022 48.943a20.7 20.7 0 0 1-1.668-6.229c14.349-1.112 23.804-5.561 27.92-13.348 1.112-2.113 2.892-2.113 4.227-1.78 2.447.668 5.005 3.226 5.005 6.452v7.119c0 10.234-8.343 18.687-18.687 18.687-7.12 0-13.794-4.338-16.797-10.9M60.4 35.706c2.003 0 3.56 1.558 3.56 3.56s-1.557 3.56-3.56 3.56h-1.557c0-.557.111-1.113.111-1.67v-5.45zM8.565 67.631c1.335-2.225 3.115-5.34-1.112-8.565-4.005-3.004-5.006-6.897-2.781-10.79.334-.556.778-1.224 1.112-1.78 1.557-2.336 3.226-4.894 3.337-8.899v-6.006c0-3.782.223-6.897.779-9.566 1.78-8.232 8.12-15.017 16.685-17.575 8.454-2.559 17.13-.557 23.026 5.339.445.445 1 .556 1.557.445 3.226-.668 5.784-.223 7.564 1.223 3.337 2.67 3.782 8.343 3.782 11.458v9.788a6.5 6.5 0 0 0-2.114-.334h-1.668c-.779-4.227-4.116-7.23-7.453-8.009-3.337-.89-6.34.445-8.009 3.449-3.782 7.008-12.792 10.9-26.807 11.68-.89 0-1.558.778-1.558 1.668 0 3.226.668 6.34 2.003 9.232 2.002 4.45 5.45 7.898 9.566 10.123h.111c4.894 3.003 3.226 7.675 2.225 9.566-.556 1.224-1.446 2.336-2.336 3.448-2.336 3.115-5.006 6.674-3.782 13.237-4.783-1.335-13.015-4.45-15.462-9.9-1-2.67-.667-5.784 1.335-9.232m16.13 23.136h.333c.445 0 .89-.222 1.223-.556q.667-.667.334-1.668c-.445-1.557-.779-2.892-.779-4.116 3.671-.222 7.342 1.224 9.789 4.116.334.333.779.556 1.224.556s1-.223 1.223-.556c2.336-2.67 5.562-4.227 8.899-4.227 3.226 0 6.23 1.335 8.565 3.782 2.114 2.336 3.448 5.34 3.56 8.565H14.682c.111-3.003 1.223-5.784 3.114-8.12 2.67 1.112 5.229 1.78 6.897 2.224M3.336 88.32c0-3.337.556-6.117 1.78-8.453 2.113 3.337 5.784 5.784 9.455 7.563-1.891 2.67-3.115 5.896-3.226 9.344H3.337zm67.186 8.454h-8.01c-.11-4.115-1.668-7.898-4.449-10.9-2.892-3.115-6.785-4.784-11.012-4.784-3.782 0-7.341 1.446-10.122 4.005-2.781-2.559-6.452-4.005-10.122-4.005h-.557c.556-2.113 1.78-3.782 3.115-5.45.89-1.224 1.89-2.448 2.67-4.005 1.557-3.226 1.89-6.34.89-8.899 1.334.223 2.78.445 4.226.445 2.892 0 5.562-.556 8.01-1.557v4.894c0 .668.444 1.335 1.112 1.558l13.348 4.56c5.117 1.78 11.123 5.117 11.123 15.573v8.565z"/></svg>