<svg xmlns="http://www.w3.org/2000/svg" width="100" height="100" fill="none"><g fill="#911BB4"><path d="M20.735 68.652a1.465 1.465 0 0 0 2.932 0v-31.76h.278c4.581 0 8.308-3.723 8.308-8.301v-8.4c0-4.577-3.727-8.301-8.308-8.301h-.278V7.324a4.4 4.4 0 0 1 4.398-4.394h5.542v4.394a3.423 3.423 0 0 0 3.42 3.418h25.804a3.424 3.424 0 0 0 3.42-3.418V2.93h5.6a4.4 4.4 0 0 1 4.399 4.394v5.15a1.466 1.466 0 0 0 2.932 0v-5.15c0-4.038-3.288-7.324-7.33-7.324H28.065c-4.042 0-7.33 3.286-7.33 7.324v4.566H8.308C3.727 11.89 0 15.613 0 20.19v8.4c0 4.578 3.727 8.302 8.308 8.302h1.795l4.29 5.771c.951 1.279 2.996.609 2.996-.99v-4.781h3.346zM63.319 2.93v4.394a.49.49 0 0 1-.488.489H37.028a.49.49 0 0 1-.489-.489V2.93zM15.923 33.963c-.81 0-1.466.656-1.466 1.465v2.408l-2.44-3.282a1.47 1.47 0 0 0-1.177-.591H8.308a5.38 5.38 0 0 1-5.376-5.372v-8.4a5.38 5.38 0 0 1 5.376-5.372h15.638a5.38 5.38 0 0 1 5.375 5.372v8.4a5.38 5.38 0 0 1-5.375 5.372zM59.029 90.625h-18.14a1.465 1.465 0 1 0 0 2.93h18.14a1.465 1.465 0 1 0 0-2.93"/><path d="M91.692 49.805h-12.51v-31.08a1.466 1.466 0 0 0-2.932 0v31.08h-.195c-4.581 0-8.308 3.724-8.308 8.301v8.4c0 4.578 3.727 8.302 8.308 8.302h.195v9.665h-6.626V78.87c0-6.957-5.665-12.618-12.628-12.618H54.36v-2.778a14.62 14.62 0 0 0 9.5-9.517q.388.086.786.087c2.728 0 4.767-3.402 4.767-6.444 0-2.377-1.235-3.975-2.788-4.695 1.357-5.525.123-12.05-4.31-15.473a1.464 1.464 0 1 0-1.793 2.318c1.835 1.417 2.91 3.382 3.487 6.372.553 2.862-.065 5.556-.4 6.704-.809.463-1.338 1.297-1.65 2.238-1.947-3.267-5.486-4.597-8.923-5.889-2.907-1.092-5.652-2.124-7.436-4.242-1.39-1.652-2.869-1.494-3.627-1.252-2.235.711-3.697 3.84-3.854 5.73-.047.535-.234 2.934-.47 4.908-.317-.627-.757-1.159-1.346-1.495-1.313-4.448-.55-10.077 2.875-12.902 2.257-1.862 5.883-2.806 10.78-2.806 2.035 0 3.866.162 5.443.482a1.465 1.465 0 1 0 .584-2.87c-1.768-.36-3.796-.542-6.028-.542-5.674 0-9.81 1.137-12.646 3.477-2.942 2.427-3.854 5.674-4.284 7.905-.57 2.956-.14 5.698.263 7.337-1.553.72-2.788 2.318-2.788 4.696 0 3.041 2.039 6.443 4.767 6.443q.398 0 .786-.087a14.62 14.62 0 0 0 9.508 9.517v2.778h-2.643c-6.963 0-12.628 5.66-12.628 12.618v5.602h-6.626v-9.426a1.465 1.465 0 0 0-2.932 0v17.629c0 4.038 3.288 7.324 7.33 7.324h43.787c4.042 0 7.33-3.286 7.33-7.324V74.808h3.43v4.781c0 1.6 2.044 2.27 2.995.99l4.29-5.771h1.795c4.581 0 8.308-3.724 8.308-8.302v-8.4c0-4.577-3.727-8.301-8.308-8.301M48.497 69.183h2.932v7.405a1.467 1.467 0 0 1-2.932 0zm16.15-18.068a.7.7 0 0 1-.195-.027c.117-1.147.06-1.806.075-3.625v-.037c.008-.825.257-1.721.476-1.992.733.146 1.479.772 1.479 2.168 0 1.85-1.247 3.513-1.836 3.513m-29.377 0c-.588 0-1.835-1.662-1.835-3.514 0-1.395.745-2.021 1.479-2.167.219.27.467 1.167.475 1.988v.044c.015 1.803-.041 2.473.076 3.622a.7.7 0 0 1-.195.027m3.052-1.512v-.605a2.25 2.25 0 0 0 1.494-1.042c.737-1.203 1.008-6.125 1.226-8.302.097-1.173 1.119-2.957 1.822-3.181.143-.045.393.227.493.346 2.277 2.706 5.516 3.922 8.647 5.1 3.643 1.368 6.79 2.55 7.97 5.775.251.685.83 1.2 1.62 1.348v.561c0 6.407-5.216 11.62-11.644 11.62-6.41 0-11.628-5.212-11.628-11.62M51.428 64.08v2.174h-2.932V64.08a14.8 14.8 0 0 0 2.932 0M33.225 78.872c0-5.342 4.35-9.688 9.696-9.688h2.643v7.405a4.4 4.4 0 0 0 4.398 4.394 4.4 4.4 0 0 0 4.399-4.394v-7.405h2.634c5.347 0 9.696 4.346 9.696 9.688v5.567H33.225zm38.627 18.2H28.065a4.4 4.4 0 0 1-4.398-4.395v-5.274H76.25v5.274a4.4 4.4 0 0 1-4.398 4.394m25.216-30.565a5.38 5.38 0 0 1-5.376 5.372H89.16c-.464 0-.9.22-1.177.591l-2.44 3.282v-2.408c0-.81-.656-1.465-1.466-1.465h-8.023a5.38 5.38 0 0 1-5.375-5.372v-8.4a5.38 5.38 0 0 1 5.375-5.372h15.638a5.38 5.38 0 0 1 5.376 5.372zM20.99 22.34l-5.603-3.37c-1.583-.952-3.6.196-3.6 2.05v6.741c0 1.863 2.027 2.997 3.6 2.05l5.603-3.37c1.541-.927 1.543-3.172 0-4.1m-6.271 4.454v-4.806l3.995 2.403z"/><path d="M90.226 57.129h-12.12a1.465 1.465 0 1 0 0 2.93h12.12a1.465 1.465 0 1 0 0-2.93M90.226 62.988h-12.12a1.465 1.465 0 1 0 0 2.93h12.12a1.465 1.465 0 1 0 0-2.93"/></g></svg>