<svg xmlns="http://www.w3.org/2000/svg" width="100" height="100" fill="none"><path fill="#911BB4" d="M20.663 61.287a3.88 3.88 0 0 0-2.885-.77l-14.39 1.917a3.907 3.907 0 0 0-3.353 4.384l3.97 29.794a3.88 3.88 0 0 0 1.5 2.583 3.88 3.88 0 0 0 2.885.77l14.39-1.918a3.91 3.91 0 0 0 3.353-4.384l-.322-2.42q3.784-1.552 8.545-3.495c3.038.635 5.827 1.381 8.53 2.104 5.077 1.358 9.502 2.542 13.89 2.542q.402 0 .802-.014c5.252-.177 9.78-2.157 14.247-6.231l25.95-23.666c2.245-2.047 2.642-5.179.944-7.447-1.478-1.975-4.112-2.624-6.395-1.72a5.3 5.3 0 0 0-.838-1.68 5.417 5.417 0 0 0-7.565-1.09l-.859.64a5.413 5.413 0 0 0-7.714-1.297l-4.508 3.373a7.2 7.2 0 0 0-2.147-.114l-33.177 3.227c-1.723.167-5.13 1.759-13.658 6.42a3.9 3.9 0 0 0-1.195-1.508M7.877 96.097 3.903 66.305l14.387-1.92 3.974 29.79zm80.482-42.12c.364.488.393 1.167.07 1.692q-.059.095-.133.18l-13.924 9.296c1.171-1.124 1.936-2.592 2.13-4.194l9.754-7.274a1.505 1.505 0 0 1 2.103.3m-10.67-.96a1.5 1.5 0 0 1 2.1.302q.073.101.13.211l-4.28 3.192a7 7 0 0 0-1.046-1.39zm-41.795 7.246 33.177-3.227c1.787-.174 3.349 1.037 3.554 2.758.225 1.882-1.3 3.205-2.924 3.538L40.787 69.27a1.953 1.953 0 0 0 .095 3.844l22.475 3.465c.483.074.976-.035 1.382-.306l28.667-19.138c.762-.51 1.701-.406 2.185.241.554.74.156 1.67-.448 2.22l-25.95 23.667c-8.125 7.41-14.957 5.582-25.299 2.816-2.929-.784-5.957-1.594-9.338-2.278a1.96 1.96 0 0 0-1.126.106 8004 8004 0 0 0-8.153 3.333l-2.716-20.375c3.97-2.183 11.776-6.444 13.333-6.602m36.257 6.365-8.95 5.974-10.98-1.693 18.266-3.75q.88-.183 1.664-.531M59.403 26.8a7.105 7.105 0 0 0 7.098-7.097 7.105 7.105 0 0 0-7.098-7.098 7.105 7.105 0 0 0-7.097 7.098 7.105 7.105 0 0 0 7.097 7.097m0-10.288a3.195 3.195 0 0 1 3.191 3.19 3.195 3.195 0 0 1-3.19 3.192 3.195 3.195 0 0 1-3.192-3.191 3.195 3.195 0 0 1 3.191-3.191m0 32.609c13.543 0 24.56-11.018 24.56-24.56C83.964 11.018 72.947 0 59.404 0s-24.56 11.018-24.56 24.56c0 13.543 11.018 24.561 24.56 24.561m-9.625-6.291c.329-5.025 4.519-9.013 9.625-9.013 5.107 0 9.297 3.988 9.626 9.013a20.5 20.5 0 0 1-9.625 2.385c-3.474 0-6.75-.864-9.626-2.385m9.625-38.924c11.39 0 20.655 9.266 20.655 20.655 0 6.37-2.9 12.075-7.447 15.866-1.384-6.015-6.778-10.516-13.208-10.516s-11.824 4.5-13.207 10.516c-4.548-3.791-7.447-9.496-7.447-15.866 0-11.39 9.265-20.655 20.654-20.655"/></svg>