<svg xmlns="http://www.w3.org/2000/svg" width="127" height="89" fill="none"><g fill="#911BB4"><path d="M123.006 48.515c-4.169-15.407-11.429-30.429-13.538-34.633-.095-.225-.309-1.068-.469-1.684-.865-3.383-1.435-5.324-3.074-5.921L89.798.412c-2.032-.744-4.325-.466-6.09.713-1.855 1.185-3.942 2.347-4.61 2.576H47.964c-.765-.223-3.28-1.511-5.125-2.553a6.86 6.86 0 0 0-6.124-.736L20.586 6.277c-1.628.593-2.19 2.503-3.04 5.829-.162.639-.387 1.509-.467 1.7-.937 1.771-9.298 17.783-13.974 34.845-5.555 20.271-3.65 33.539 5.661 39.43 2.175 1.38 5.088 1.146 7.084-.567l19.178-16.446a12.88 12.88 0 0 1 8.378-3.1h39.697c3.07 0 6.046 1.1 8.378 3.1l19.178 16.446A6.1 6.1 0 0 0 114.631 89c1.107 0 2.21-.313 3.158-.95 8.941-6.001 10.697-19.302 5.217-39.535M61.946 7.903c.434.07 1.023.072 1.189-.002h3.675v.063c0 1.24-.544 2.41-1.494 3.213-.963.811-2.188 1.145-3.465.92-1.627-.275-3.005-1.603-3.35-3.223q-.103-.492-.094-.975zm53.502 76.657c-.576.39-1.439.288-2.049-.235l-19.18-16.447a17.1 17.1 0 0 0-11.114-4.112h-39.7c-4.074 0-8.02 1.46-11.113 4.112L13.114 84.325c-.603.517-1.465.605-2.1.206-9.426-5.966-7.3-22.2-3.855-34.77 4.555-16.626 12.719-32.259 13.633-33.986.281-.53.477-1.267.826-2.627.208-.817.611-2.397.92-3.11l15.615-5.677c.783-.29 1.662-.179 2.481.363 5.602 3.18 6.745 3.18 7.176 3.18h6.398a8.5 8.5 0 0 0 .185 1.844c.702 3.32 3.42 5.93 6.754 6.497q.725.125 1.448.124a8.396 8.396 0 0 0 8.416-8.4c0-.021-.007-.042-.007-.064h8.268c.488 0 1.633 0 6.733-3.259a2.63 2.63 0 0 1 2.353-.283l15.619 5.68c.317.727.736 2.357.95 3.198.328 1.29.513 1.987.767 2.494 2.898 5.77 27.766 56.734 9.754 68.825"/><path d="M79.418 36.45c-5.794 0-10.507 4.712-10.507 10.506 0 5.793 4.713 10.506 10.507 10.506s10.506-4.713 10.506-10.506-4.715-10.507-10.507-10.507m0 16.81a6.31 6.31 0 0 1-6.304-6.304 6.31 6.31 0 0 1 6.304-6.304 6.31 6.31 0 0 1 6.303 6.304 6.31 6.31 0 0 1-6.303 6.303M41.595 25.943c0-5.794-4.714-10.507-10.507-10.507S20.582 20.15 20.582 25.943s4.713 10.506 10.506 10.506 10.506-4.713 10.506-10.506m-10.507 6.303a6.31 6.31 0 0 1-6.304-6.303 6.31 6.31 0 0 1 6.304-6.304 6.31 6.31 0 0 1 6.304 6.304 6.31 6.31 0 0 1-6.304 6.303M94.127 21.74a4.203 4.203 0 1 0 0-8.405 4.203 4.203 0 0 0 0 8.405M85.721 30.145a4.202 4.202 0 1 0 0-8.405 4.202 4.202 0 0 0 0 8.405M102.531 30.145a4.203 4.203 0 1 0 0-8.405 4.203 4.203 0 0 0 0 8.405M94.127 38.55a4.203 4.203 0 1 0 0-8.405 4.203 4.203 0 0 0 0 8.405M59.455 39.923h-4.803V35.12a3.61 3.61 0 0 0-3.602-3.603h-5.402a3.61 3.61 0 0 0-3.602 3.603v4.802h-4.803a3.61 3.61 0 0 0-3.602 3.603v5.4a3.61 3.61 0 0 0 3.602 3.604h4.803v4.802a3.61 3.61 0 0 0 3.602 3.603h5.402a3.61 3.61 0 0 0 3.602-3.603V52.53h4.803a3.61 3.61 0 0 0 3.602-3.603v-5.4a3.61 3.61 0 0 0-3.602-3.604m-.6 8.405h-8.406v8.405h-4.202v-8.405h-8.405v-4.203h8.405V35.72h4.202v8.405h8.405z"/></g></svg>