<svg xmlns="http://www.w3.org/2000/svg" width="88" height="100" fill="none"><g fill="#911BB4"><path d="M31.917 94.996h5.4a1.5 1.5 0 1 0 0-3h-5.4a1.5 1.5 0 1 0 0 3"/><path d="M84.85 59.523a1.5 1.5 0 0 0-2.692 1.324c1.435 2.916 2.162 6.258 2.162 9.933v.314h-6.6a3.74 3.74 0 0 0-3.735 3.736v10.934H37.649V74.83a3.74 3.74 0 0 0-3.735-3.736h-6.597v-.314c0-8.653 4.008-15.249 11.612-19.405a19.26 19.26 0 0 0 16.888 10.028 19.26 19.26 0 0 0 16.89-10.032c1.895 1.037 3.855 2.39 5.61 4.145a1.5 1.5 0 0 0 2.122-2.122c-2.393-2.39-5.112-4.11-7.62-5.334a10.76 10.76 0 0 0 4.612-4.464c2.89-5.253.337-9.846.321-9.926-1.054-2.272-1.612-4.859-1.613-7.481l-.002-5.87C76.137 9.114 67.022 0 55.819 0c-4.5 0-8.661 1.47-12.032 3.956H6.479A6.486 6.486 0 0 0 0 10.434v83.088A6.486 6.486 0 0 0 6.478 100h56.279a6.486 6.486 0 0 0 6.478-6.478v-4.758h9.662c4.645 0 8.423-3.778 8.423-8.423V70.78c0-4.139-.83-7.926-2.47-11.257M33.914 74.094c.405 0 .735.33.735.736v10.934h-4.88a2.456 2.456 0 0 1-2.452-2.453v-9.217zm7.843-43.248a14.24 14.24 0 0 0 4.001 7.453c.878.866 1.85 1.603 2.89 2.206v2.383c0 1.265-.94 2.246-2.1 2.486-.72.149-1.819.411-3.15.836-3.073-.208-5.297-1.757-6.564-4.06a7.86 7.86 0 0 1-.273-7.12l.045-.097a20.4 20.4 0 0 0 1.562-5.01c1.684 1.086 3.418.902 3.589.923m-3.258-5.816a2.82 2.82 0 0 1 2.814-2.814h.179v5.63h-.179A2.813 2.813 0 0 1 38.5 25.03m5.993 3.25v-8.813a4.76 4.76 0 0 1 4.754-4.753c3.789 0 3.928 4.013 9.586 4.013h5.633a2.68 2.68 0 0 1 2.677 2.677v6.876c-.099 6.146-5.177 11.145-11.325 11.145S44.591 34.426 44.492 28.28m11.325 30.123a16.26 16.26 0 0 1-14.182-8.334c2.531-1.071 4.648-1.576 5.52-1.757 2.565-.53 4.493-2.705 4.493-5.424V41.81c1.335.405 2.736.615 4.169.615s2.836-.21 4.172-.615v1.078c0 2.714 1.924 4.893 4.492 5.424.61.126 1.69.38 3.04.823l.026.009c.747.245 1.576.55 2.454.921a16.26 16.26 0 0 1-14.184 8.338m19.26-23.372a7.86 7.86 0 0 1-.274 7.12c-1.253 2.277-3.466 3.854-6.583 4.06a31 31 0 0 0-3.131-.837c-1.152-.238-2.1-1.213-2.1-2.486v-2.384a14.4 14.4 0 0 0 2.887-2.205 14.24 14.24 0 0 0 4.001-7.453c.229-.028 1.86.194 3.592-.924.52 2.939 1.57 5.012 1.607 5.11m-2.763-8.01c-.937.937-2.11.813-2.172.824v-5.629h.182a2.82 2.82 0 0 1 2.814 2.814c0 .752-.292 1.459-.824 1.99M55.82 3c9.423 0 17.111 7.564 17.313 16.94-1.653-.915-3.09-.69-3.429-.725a5.69 5.69 0 0 0-5.238-3.49h-5.633c-4.28 0-4.36-4.013-9.586-4.013-4.192 0-7.615 3.344-7.748 7.503-.114.014-1.474-.116-2.993.725.202-9.375 7.89-16.94 17.314-16.94M3 18.19h5.622a1.5 1.5 0 1 0 0-3H3v-4.757a3.48 3.48 0 0 1 3.478-3.478h34.048a20.3 20.3 0 0 0-4.37 8.235H15.635a1.5 1.5 0 1 0 0 3h19.976a21 21 0 0 0-.11 2.127l-.003 5.87c-.001 2.623-.56 5.21-1.615 7.485l-.051.112c-1.448 3.17-1.312 6.746.373 9.81a10.76 10.76 0 0 0 4.6 4.459c-9.207 4.508-14.488 12.217-14.488 22.725v12.532c0 .882.212 1.715.585 2.453H3zm63.234 75.33A3.48 3.48 0 0 1 62.756 97H6.478A3.48 3.48 0 0 1 3 93.522v-4.758h63.235zm18.086-13.18a5.43 5.43 0 0 1-5.423 5.423h-1.912V74.83c0-.406.33-.736.735-.736h6.6z"/><path d="m25.958 41.183-1.263-5.366 4.176-3.598a1.98 1.98 0 0 0 .59-2.114 1.98 1.98 0 0 0-1.72-1.363l-5.493-.457-2.133-5.083a1.98 1.98 0 0 0-1.827-1.216c-.801 0-1.518.477-1.828 1.216l-2.133 5.083-5.493.457a1.98 1.98 0 0 0-1.72 1.362 1.98 1.98 0 0 0 .59 2.114l4.176 3.6-1.263 5.365c-.183.78.117 1.587.764 2.058.65.471 1.51.505 2.193.09l4.713-2.858L23 43.332c.684.415 1.545.38 2.193-.091.648-.47.948-1.279.765-2.058m-3.689-7.235a1.98 1.98 0 0 0-.636 1.956l.848 3.604-3.165-1.92a1.98 1.98 0 0 0-2.056 0l-3.166 1.92.848-3.604a1.98 1.98 0 0 0-.635-1.956l-2.805-2.417 3.691-.307a1.98 1.98 0 0 0 1.662-1.209l1.433-3.414 1.431 3.414a1.98 1.98 0 0 0 1.664 1.209l3.69.307z"/></g></svg>