<svg xmlns="http://www.w3.org/2000/svg" width="100" height="100" fill="none"><g fill="#911BB4"><path d="M98.058.002C69.56-.22 44.891 15.052 27.688 38.013c-7.371-3.442-16.237-1.944-22.075 3.893-.762.763-.763 2 0 2.763l15.765 15.765-2.934 10.426c-.191.68 0 1.41.5 1.91l8.286 8.287c.502.502 1.235.69 1.91.5l10.426-2.935 15.765 15.765c.763.763 2 .763 2.763 0 5.839-5.839 7.336-14.705 3.89-22.076 6.334-4.744 14.927-12.272 22.33-22.568a1.953 1.953 0 0 0-3.17-2.28c-7.647 10.634-16.63 18.21-22.82 22.694-6.41 4.647-11.242 7.067-13.589 8.11l-10.12-10.12 11.049-11.049a1.953 1.953 0 0 0-2.762-2.762L31.853 65.385c-7.307-7.308.645.642-10.12-10.12 6.216-13.994 25.93-40.029 55.335-48.49a19.46 19.46 0 0 0 5.467 10.69 19.46 19.46 0 0 0 10.687 5.467 76 76 0 0 1-3.504 9.642 1.953 1.953 0 0 0 3.573 1.58c4.68-10.579 6.783-21.423 6.706-32.212a1.953 1.953 0 0 0-1.939-1.94M58.742 74.646a15.66 15.66 0 0 1-2.116 15.511l-8.946-8.946c3.322-1.597 7.216-3.907 11.062-6.565M24.545 63.6 36.4 75.455l-7.217 2.03-6.669-6.669zm-5.756-11.28-8.946-8.946a15.66 15.66 0 0 1 15.51-2.117c-2.657 3.843-4.966 7.739-6.564 11.063m75.423-33.188a15.57 15.57 0 0 1-8.915-4.429 15.57 15.57 0 0 1-4.43-8.915A74 74 0 0 1 96.08 3.92a74 74 0 0 1-1.868 15.212"/><path d="M52.36 28.305c-5.336 5.337-5.337 13.997 0 19.334s13.998 5.338 19.335 0c5.337-5.337 5.338-13.997 0-19.334-5.337-5.337-13.997-5.338-19.334 0m16.573 16.572c-3.81 3.81-10 3.81-13.81 0s-3.81-10 0-13.81 10-3.81 13.81 0 3.81 10 0 13.81M87.163 42.964a1.953 1.953 0 1 0 0-3.907 1.953 1.953 0 0 0 0 3.907M10.656 78.295c-2.399 2.4-9.134 16.165-10.46 18.9a1.953 1.953 0 0 0 2.61 2.61c2.734-1.327 16.499-8.062 18.899-10.46v-.001c3.047-3.046 3.047-8.003 0-11.05a7.81 7.81 0 0 0-11.05.001m8.288 8.286c-1.075 1.074-7.003 4.27-12.663 7.138 2.868-5.66 6.064-11.588 7.137-12.662a3.903 3.903 0 0 1 5.525 0 3.91 3.91 0 0 1 0 5.524"/></g></svg>