<svg xmlns="http://www.w3.org/2000/svg" width="100" height="100" fill="none"><g fill="#911BB4"><path d="M94.998 86.667h-.647l3.937-34.237A6.667 6.667 0 0 0 91.665 45H60.778c0-.116.02-.231.02-.35V25.687A25.737 25.737 0 0 0 34.708.002C20.53.454 9.302 12.136 9.416 26.32v18.333a10.53 10.53 0 0 0 8.28 10.272l-.406.151A26.27 26.27 0 0 0 .05 78.06Q.001 79.002 0 80v13.332A6.666 6.666 0 0 0 6.666 100h88.332a5 5 0 0 0 5-5v-3.333a5 5 0 0 0-5-5m-.834-37.21c.634.703.93 1.648.814 2.588l-3.98 34.622H42.332l-3.3-28.714v-.014l-.678-5.9c-.116-.938.18-1.88.813-2.583a3.35 3.35 0 0 1 2.499-1.121h49.999c.955 0 1.864.408 2.5 1.121m-50.568-5.049q-.249.29-.552.593h-1.378a6.68 6.68 0 0 0-4.989 2.242 6.6 6.6 0 0 0-1.21 2.047c-.126.012-.254.028-.368.028a9.7 9.7 0 0 1-4.548-1.666 17.2 17.2 0 0 1-3.953-3.245 10.9 10.9 0 0 1-1.952-3.528L22.78 35.28a1.67 1.67 0 0 0-1.58-1.14 3.375 3.375 0 0 1 0-6.75c.921 0 1.667-.745 1.667-1.666v-3.916a8.7 8.7 0 0 0 4.223-3.899c2.407 2.047 7.037 4.394 15.61 4.394 2.238 0 4.243 3 4.833 4.166.282.565.859.923 1.49.923a3.375 3.375 0 0 1 0 6.75c-.717 0-1.353.46-1.58 1.14l-1.865 5.595a10.8 10.8 0 0 1-1.981 3.531M29.628 50.96a12.05 12.05 0 0 0 5.441 1.69l.458 3.986a15.9 15.9 0 0 1-5.703-.872 8 8 0 0 1-2.71-1.441 10.2 10.2 0 0 0 2.514-3.363M12.75 44.65V26.32c-.12-12.365 9.648-22.567 22.006-22.983a22.406 22.406 0 0 1 22.71 22.35v18.965c0 .12-.016.234-.02.35H47.263c.609-.962 1.1-1.994 1.465-3.073l1.525-4.573a6.708 6.708 0 0 0-.227-13.226c-1.023-1.667-3.618-5.167-7.333-5.167-12.391 0-14.891-5.248-14.903-5.27a1.667 1.667 0 0 0-3.213.62 4.975 4.975 0 0 1-3.788 4.7 1.67 1.67 0 0 0-1.262 1.617v3.626a6.706 6.706 0 0 0 .428 13.093l1.527 4.578a14.3 14.3 0 0 0 2.552 4.607 18 18 0 0 0 2.764 2.553 6.7 6.7 0 0 1-1.89 2.749h-4.976a7.193 7.193 0 0 1-7.183-7.184M3.333 93.334V80q0-.906.045-1.764a22.94 22.94 0 0 1 15.085-20.04l5.703-2.14a9.73 9.73 0 0 0 4.547 2.85 19.3 19.3 0 0 0 6.365 1.08c.276 0 .55-.043.833-.054l3.068 26.734h-.647a5 5 0 0 0-5 5V95c.006.57.11 1.133.307 1.667H15V78.334a1.667 1.667 0 1 0-3.333 0v18.333h-5a3.333 3.333 0 0 1-3.333-3.334M96.664 95c0 .92-.746 1.667-1.666 1.667H38.333c-.921 0-1.667-.746-1.667-1.667v-3.333c0-.92.746-1.667 1.667-1.667h56.665c.92 0 1.666.746 1.666 1.667z"/><path d="M66.665 80c5.523 0 10-4.477 10-10s-4.477-9.999-10-9.999-10 4.477-10 10c.006 5.52 4.48 9.994 10 10m0-16.666a6.666 6.666 0 1 1 0 13.333 6.666 6.666 0 0 1 0-13.333"/></g></svg>