<svg xmlns="http://www.w3.org/2000/svg" width="105" height="100" fill="none"><g fill="#911BB4"><path d="M52.265 88.637H40.902V54.548h18.18v5.34a2.273 2.273 0 1 0 4.546 0v-5.34a4.545 4.545 0 0 0-4.545-4.545H40.902a4.546 4.546 0 0 0-4.545 4.545v34.09H24.994a6.82 6.82 0 0 1-6.818-6.819V39.056L49.992 17.56l31.816 21.496v10.947a2.273 2.273 0 0 0 4.546 0v-7.877l1.227.83a7.955 7.955 0 1 0 8.906-13.181L54.444 1.37a7.92 7.92 0 0 0-8.904 0L3.497 29.777a7.954 7.954 0 0 0 2.955 14.4 7.89 7.89 0 0 0 5.961-1.216l1.218-.835V81.82a11.376 11.376 0 0 0 11.363 11.363h27.27a2.273 2.273 0 1 0 0-4.545M9.856 39.192a3.41 3.41 0 1 1-3.816-5.65L48.083 5.136a3.41 3.41 0 0 1 3.818 0l42.043 28.408a3.41 3.41 0 0 1 .91 4.733 3.48 3.48 0 0 1-4.733.91L51.265 12.933a2.27 2.27 0 0 0-2.545 0z"/><path d="M97.717 65.911h-6.818v-4.545a4.545 4.545 0 0 0-4.545-4.545h-9.09a4.545 4.545 0 0 0-4.546 4.545v4.545H65.9a6.82 6.82 0 0 0-6.818 6.818v20.453A6.82 6.82 0 0 0 65.9 100h31.816a6.816 6.816 0 0 0 6.818-6.818V72.73a6.816 6.816 0 0 0-6.818-6.818m-20.454-4.545h9.09v4.545h-9.09zM99.99 93.182a2.273 2.273 0 0 1-2.273 2.273H65.9a2.273 2.273 0 0 1-2.272-2.273V72.73a2.273 2.273 0 0 1 2.272-2.273h31.816a2.273 2.273 0 0 1 2.273 2.273z"/></g></svg>